<svg width="55" height="75" viewBox="0 0 55 75" fill="none" xmlns="http://www.w3.org/2000/svg">
<g clip-path="url(#clip0_121_282)">
<path d="M14.308 74.4718C21.6663 74.4718 27.6384 68.9338 27.6384 62.1101V49.7483H14.308C6.94956 49.7483 0.977539 55.2864 0.977539 62.1101C0.977539 68.9338 6.94956 74.4718 14.308 74.4718Z" fill="#0ACF83"/>
<path d="M0.977539 37.3862C0.977539 30.5625 6.94956 25.0244 14.308 25.0244H27.6384V49.748H14.308C6.94956 49.748 0.977539 44.2099 0.977539 37.3862Z" fill="#A259FF"/>
<path d="M0.976074 12.6628C0.976074 5.8391 6.9481 0.301025 14.3065 0.301025H27.6369V25.0246H14.3065C6.9481 25.0246 0.976074 19.4865 0.976074 12.6628Z" fill="#F24E1E"/>
<path d="M27.6392 0.301025H40.9696C48.328 0.301025 54.3 5.8391 54.3 12.6628C54.3 19.4865 48.328 25.0246 40.9696 25.0246H27.6392V0.301025Z" fill="#FF7262"/>
<path d="M54.3 37.3862C54.3 44.2099 48.328 49.748 40.9696 49.748C33.6112 49.748 27.6392 44.2099 27.6392 37.3862C27.6392 30.5625 33.6112 25.0244 40.9696 25.0244C48.328 25.0244 54.3 30.5625 54.3 37.3862Z" fill="#1ABCFE"/>
</g>
<defs>
<clipPath id="clip0_121_282">
<rect width="53.3323" height="74.1706" fill="white" transform="translate(0.9729 0.301025)"/>
</clipPath>
</defs>
</svg>
