<svg width="75" height="75" viewBox="0 0 75 75" fill="none" xmlns="http://www.w3.org/2000/svg">
<path d="M0.158691 0H74.021V74.1706H0.158691V0Z" fill="#F7DF1E"/>
<path d="M19.58 61.9822L25.2324 58.5471C26.3229 60.4886 27.3149 62.1313 29.6943 62.1313C31.9751 62.1313 33.4131 61.2354 33.4131 57.7505V34.0513H40.3543V57.8491C40.3543 65.0684 36.1401 68.3544 29.9918 68.3544C24.4392 68.3544 21.2159 65.4665 19.5798 61.9816" fill="black"/>
<path d="M44.1243 61.2356L49.776 57.9496C51.2638 60.3895 53.1975 62.1817 56.6184 62.1817C59.4944 62.1817 61.3285 60.7377 61.3285 58.7462C61.3285 56.3563 59.4445 55.5099 56.2712 54.1163L54.5364 53.3689C49.5284 51.2284 46.2064 48.5399 46.2064 42.864C46.2064 37.6363 50.1728 33.6531 56.3706 33.6531C60.7834 33.6531 63.9566 35.1966 66.237 39.2295L60.8326 42.7145C59.6426 40.5738 58.3539 39.7275 56.3708 39.7275C54.3379 39.7275 53.0487 41.022 53.0487 42.7145C53.0487 44.8056 54.3379 45.6522 57.3125 46.9468L59.0476 47.6936C64.9478 50.2329 68.2699 52.8216 68.2699 58.6466C68.2699 64.9202 63.3614 68.3553 56.7673 68.3553C50.3218 68.3553 46.1569 65.2686 44.1244 61.2356" fill="black"/>
</svg>
