<svg width="82" height="79" viewBox="0 0 82 79" fill="none" xmlns="http://www.w3.org/2000/svg">
<path d="M75.1622 60.8965C70.7505 60.7877 67.3314 61.2243 64.4637 62.4242C63.6365 62.7514 62.3129 62.7518 62.2025 63.788C62.644 64.2247 62.699 64.9339 63.0851 65.5338C63.7472 66.6245 64.9048 68.0979 65.9527 68.8617C67.1107 69.7344 68.2689 70.6071 69.4819 71.371C71.6327 72.6804 74.0593 73.444 76.1548 74.7534C77.3684 75.5165 78.581 76.4991 79.7943 77.3174C80.4011 77.7534 80.7868 78.4629 81.559 78.7356V78.572C81.1729 78.0809 81.0626 77.3718 80.6768 76.8263C80.1257 76.2808 79.5739 75.7896 79.0225 75.2441C77.4231 73.1168 75.4379 71.2618 73.2871 69.7344C71.5227 68.5342 67.6622 66.8976 66.9453 64.8791C66.9453 64.8791 66.89 64.8247 66.835 64.7703C68.0482 64.6611 69.4819 64.2247 70.6402 63.8972C72.5153 63.4061 74.2247 63.5153 76.1548 63.0245C77.037 62.8062 77.9195 62.5334 78.8017 62.2606V61.7699C77.8095 60.7876 77.0923 59.4786 76.0444 58.5511C73.2321 56.1503 70.1437 53.805 66.9453 51.8412C65.2356 50.7501 63.0297 50.0407 61.21 49.1135C60.5485 48.7857 59.4452 48.6224 59.0595 48.0769C58.0666 46.8767 57.5151 45.2948 56.7983 43.8763C55.1996 40.8755 53.6549 37.5483 52.2762 34.3843C51.284 32.2566 50.6772 30.1289 49.4639 28.1651C43.784 18.8912 37.6075 13.2723 28.1223 7.76225C26.0818 6.61678 23.6556 6.12567 21.0637 5.52573C19.6854 5.47097 18.3064 5.36214 16.9277 5.30738C16.0455 4.92544 15.1629 3.88915 14.3908 3.39803C11.2481 1.43393 3.14115 -2.82078 0.824948 2.79809C-0.664069 6.34403 3.03079 9.83519 4.29907 11.6357C5.23698 12.8903 6.44991 14.3086 7.11174 15.7272C7.49783 16.6539 7.60784 17.6365 7.99394 18.6184C8.87648 21.0182 9.70333 23.6917 10.8616 25.9286C11.4684 27.0741 12.1299 28.2743 12.9021 29.3106C13.3432 29.9105 14.115 30.1837 14.2807 31.1655C13.5089 32.2566 13.4535 33.8932 13.0121 35.257C11.027 41.4214 11.7992 49.0588 14.6115 53.5866C15.4937 54.9501 17.5895 57.9512 20.4018 56.8054C22.8834 55.8235 22.3319 52.7139 23.0488 49.9862C23.2145 49.3312 23.1041 48.8952 23.4349 48.4588C23.4352 48.5132 23.4349 48.568 23.4349 48.568C24.207 50.0954 24.9789 51.5684 25.6957 53.0958C27.4055 55.7687 30.3832 58.5511 32.8647 60.406C34.1887 61.3876 35.2363 63.0789 36.8907 63.6792V63.5153H36.7803C36.4492 63.0241 35.9531 62.8061 35.512 62.4242C34.5194 61.4423 33.4162 60.2421 32.6443 59.151C30.3285 56.0959 28.2876 52.7139 26.4679 49.2224C25.5857 47.5314 24.8135 45.6764 24.0967 43.9854C23.7656 43.3304 23.7656 42.3489 23.2141 42.0217C22.3869 43.2216 21.174 44.2582 20.5672 45.7312C19.52 48.0769 19.4093 50.9681 19.0232 53.9685C18.8028 54.0233 18.9128 53.9685 18.8024 54.0777C17.038 53.641 16.4312 51.8412 15.7694 50.3134C14.115 46.4403 13.8393 40.2211 15.2733 35.7481C15.6594 34.6023 17.3138 31.0019 16.6519 29.9109C16.3212 28.8742 15.2179 28.2743 14.6115 27.456C13.8946 26.4194 13.1224 25.1103 12.6263 23.9645C11.3027 20.9097 10.6409 17.5274 9.20722 14.4722C8.5454 13.0536 7.38747 11.581 6.44991 10.2719C5.40235 8.7989 4.24407 7.76225 3.41686 6.01649C3.14148 5.41655 2.75504 4.43467 3.19614 3.77996C3.3065 3.34361 3.52687 3.18002 3.96832 3.07085C4.68515 2.47056 6.72563 3.23443 7.44245 3.56161C9.48292 4.37956 11.1923 5.14378 12.9021 6.28925C13.6739 6.83478 14.5011 7.87142 15.4936 8.14419H16.6519C18.4167 8.52578 20.4018 8.25336 22.0562 8.74413C24.9792 9.67125 27.6258 11.0354 29.9974 12.5084C37.2217 17.0362 43.1771 23.4737 47.2031 31.1655C47.8649 32.4198 48.1403 33.566 48.7471 34.8751C49.9054 37.5483 51.339 40.2759 52.4969 42.8944C53.6549 45.4581 54.7578 48.0769 56.4122 50.2046C57.2397 51.3497 60.5481 51.95 62.0371 52.5503C63.1401 53.0411 64.8498 53.4778 65.8424 54.0777C67.7171 55.2228 69.5922 56.5326 71.357 57.7872C72.2395 58.4416 74.9965 59.8058 75.1622 60.8965L75.1622 60.8965Z" fill="#00546B"/>
</svg>
