<svg width="67" height="75" viewBox="0 0 67 75" fill="none" xmlns="http://www.w3.org/2000/svg">
<path d="M33.4303 74.9761C32.4116 74.9761 31.4609 74.704 30.5781 74.228L21.5461 68.8549C20.1879 68.1067 20.867 67.8347 21.2744 67.6986C23.108 67.0865 23.4476 66.9505 25.349 65.8623C25.5528 65.7262 25.8244 65.7942 26.0281 65.9303L32.9549 70.0791C33.2266 70.2151 33.5661 70.2151 33.7698 70.0791L60.8658 54.3679C61.1375 54.2319 61.2733 53.9599 61.2733 53.6198V22.2654C61.2733 21.9254 61.1375 21.6533 60.8658 21.5173L33.7698 5.87411C33.4982 5.73809 33.1586 5.73809 32.9549 5.87411L5.85893 21.5173C5.58729 21.6533 5.45147 21.9934 5.45147 22.2654V53.6198C5.45147 53.8918 5.58729 54.2319 5.85893 54.3679L13.2611 58.6528C17.2678 60.6932 19.7804 58.3127 19.7804 55.9322V24.986C19.7804 24.5779 20.12 24.1698 20.5953 24.1698H24.0587C24.4662 24.1698 24.8737 24.5099 24.8737 24.986V55.9322C24.8737 61.3053 21.9535 64.434 16.8603 64.434C15.2984 64.434 14.076 64.434 10.6126 62.7336L3.48209 58.6528C1.71644 57.6326 0.629883 55.7282 0.629883 53.6878V22.3334C0.629883 20.293 1.71644 18.3886 3.48209 17.3684L30.5781 1.65726C32.2758 0.705067 34.5847 0.705067 36.2825 1.65726L63.3785 17.3684C65.1441 18.3886 66.2307 20.293 66.2307 22.3334V53.6878C66.2307 55.7282 65.1441 57.6326 63.3785 58.6528L36.2825 74.364C35.3997 74.7721 34.381 74.9761 33.4303 74.9761ZM41.7832 53.4157C29.899 53.4157 27.4542 47.9746 27.4542 43.3497C27.4542 42.9416 27.7938 42.5335 28.2691 42.5335H31.8004C32.2079 42.5335 32.5475 42.8056 32.5475 43.2137C33.0907 46.8184 34.6527 48.5868 41.8511 48.5868C47.5555 48.5868 50.0003 47.2945 50.0003 44.2339C50.0003 42.4655 49.3212 41.1733 40.425 40.2891C33.0228 39.5409 28.405 37.9086 28.405 31.9914C28.405 26.4823 33.0228 23.2176 40.7645 23.2176C49.457 23.2176 53.7353 26.2102 54.2786 32.7396C54.2786 32.9436 54.2107 33.1476 54.0748 33.3517C53.939 33.4877 53.7353 33.6237 53.5316 33.6237H50.0003C49.6607 33.6237 49.3212 33.3517 49.2533 33.0116C48.4383 29.2709 46.3331 28.0466 40.7645 28.0466C34.5168 28.0466 33.7698 30.223 33.7698 31.8554C33.7698 33.8278 34.6527 34.4399 43.0735 35.5281C51.4264 36.6163 55.3651 38.1807 55.3651 44.0298C55.2972 50.0151 50.4077 53.4157 41.7832 53.4157Z" fill="#539E43"/>
</svg>
