<svg width="98" height="75" viewBox="0 0 98 75" fill="none" xmlns="http://www.w3.org/2000/svg">
<path d="M83.8092 42.563C80.4115 42.5825 77.4693 43.4129 75.0016 44.6492C74.0905 42.8143 73.1794 41.2109 73.0277 40.0136C72.8569 38.6229 72.6481 37.7728 72.8569 36.1119C73.0655 34.4506 74.0146 32.0941 74.0146 31.901C73.9954 31.7271 73.8056 30.8773 71.8506 30.8579C69.8957 30.8386 68.2061 31.2442 68.0163 31.7658C67.8265 32.2873 67.4468 33.4848 67.2001 34.721C66.8584 36.5366 63.2898 42.9686 61.2587 46.3488C60.5944 45.0353 60.0249 43.8764 59.9108 42.9491C59.7402 41.5586 59.5312 40.7085 59.7402 39.0476C59.949 37.3863 60.8981 35.03 60.8981 34.8369C60.8791 34.663 60.6893 33.8132 58.7343 33.7939C56.779 33.7745 55.0898 34.1802 54.9 34.7017C54.7102 35.2232 54.5014 36.4594 54.0838 37.6569C53.685 38.8545 48.9395 49.5937 47.7057 52.3945C47.0793 53.8238 46.529 54.9634 46.1302 55.736C45.7316 56.5086 46.1112 55.7939 46.0732 55.8712C45.7316 56.5279 45.5417 56.8949 45.5417 56.8949V56.9144C45.276 57.3973 44.9913 57.8607 44.8582 57.8607C44.7633 57.8607 44.5735 56.5666 44.8962 54.7897C45.5985 51.0617 47.3069 45.248 47.2881 45.0355C47.2881 44.939 47.6106 43.9151 46.1869 43.3937C44.8013 42.8722 44.3079 43.7414 44.1938 43.7414C44.08 43.7414 43.985 44.0505 43.985 44.0505C43.985 44.0505 45.5226 37.5028 41.0428 37.5028C38.2335 37.5028 34.3612 40.6125 32.444 43.4519C31.2292 44.1279 28.6477 45.557 25.9143 47.0831C24.8703 47.6626 23.7883 48.2807 22.7633 48.8408L22.5547 48.6087C17.1259 42.7175 7.08444 38.5454 7.50204 30.6262C7.6539 27.7482 8.64095 20.1573 26.7878 10.9632C41.6507 3.43027 53.5523 5.49701 55.6211 10.094C58.5633 16.6612 49.2622 28.8685 33.8111 30.6262C27.9267 31.3022 24.8325 28.9844 24.0544 28.1152C23.2382 27.2074 23.1243 27.1687 22.8206 27.3426C22.3271 27.613 22.6308 28.4242 22.8206 28.9071C23.2762 30.124 25.1744 32.2873 28.4013 33.3689C31.2294 34.3154 38.139 34.8369 46.491 31.5533C55.8491 27.8641 63.1571 17.627 61.0122 9.07033C58.8293 0.359147 44.6308 -2.49951 31.2106 2.34862C23.219 5.24591 14.5633 9.76568 8.33724 15.6955C0.934307 22.7262 -0.24257 28.8685 0.250959 31.4181C1.9785 40.5156 14.2976 46.4454 19.2328 50.8299C18.9861 50.9649 18.7583 51.1001 18.5495 51.2162C16.0819 52.4522 6.68582 57.4551 4.33207 62.7472C1.6746 68.735 4.74967 73.0425 6.79971 73.6219C13.1397 75.4183 19.6315 72.1926 23.1431 66.8809C26.6356 61.5692 26.2182 54.6737 24.6047 51.5253L24.5476 51.4094L26.4837 50.2505C27.7367 49.4972 28.9706 48.8018 30.0523 48.2029C29.4451 49.8833 29.0083 51.8728 28.7807 54.77C28.515 58.1697 29.8817 62.5734 31.685 64.3118C32.4822 65.0649 33.4313 65.0844 34.0197 65.0844C36.1077 65.0844 37.0568 63.3265 38.1008 61.2213C39.3916 58.6524 40.5305 55.6779 40.5305 55.6779C40.5305 55.6779 39.1069 63.7323 42.9982 63.7323C44.4218 63.7323 45.8455 61.8587 46.4908 60.893V60.9123C46.4908 60.9123 46.5288 60.8544 46.6047 60.7191C46.6844 60.5993 46.7603 60.477 46.8325 60.3523V60.3137C47.402 59.3093 48.6738 57.0108 50.5719 53.2057C53.0204 48.2996 55.3744 42.1574 55.3744 42.1574C55.3744 42.1574 55.6021 43.664 56.3045 46.1363C56.7219 47.6045 57.633 49.2074 58.3353 50.772C57.7659 51.5832 57.4242 52.047 57.4242 52.047L57.4432 52.0663C56.9878 52.6844 56.4751 53.3413 55.9438 53.9978C54.0077 56.3543 51.6919 59.0393 51.3882 59.8119C51.0275 60.7195 51.1034 61.3956 51.8058 61.9366C52.3183 62.3229 53.2294 62.4 54.1975 62.3229C55.9438 62.2068 57.1587 61.7627 57.7661 61.4921C58.7152 61.1445 59.7971 60.623 60.8411 59.8503C62.7393 58.4212 63.8972 56.3931 63.7833 53.689C63.7264 52.2017 63.2519 50.7337 62.6634 49.343C62.8342 49.0919 63.0053 48.8406 63.1759 48.5704C66.1751 44.1084 68.4908 39.2025 68.4908 39.2025C68.4908 39.2025 68.7186 40.7091 69.421 43.1815C69.7814 44.437 70.5029 45.8085 71.1483 47.1606C68.339 49.4977 66.5737 52.2019 65.9663 53.9789C64.8463 57.2625 65.7195 58.7498 67.3709 59.0974C68.111 59.252 69.1742 58.9043 69.9712 58.5566C70.9583 58.2283 72.1542 57.6679 73.2553 56.8375C75.1535 55.4082 76.9758 53.4188 76.8808 50.7339C76.8239 49.4978 76.5012 48.2809 76.0646 47.122C78.4563 46.1176 81.5502 45.5381 85.4796 46.021C93.9266 47.0254 95.597 52.395 95.2745 54.6356C94.9518 56.8764 93.1865 58.1124 92.5978 58.4987C92.0094 58.8657 91.8196 59.0011 91.8765 59.2713C91.9525 59.6771 92.2182 59.6576 92.7307 59.5805C93.4331 59.4644 97.1725 57.7456 97.3243 53.6123C97.5521 48.2998 92.5978 42.5052 83.8092 42.563ZM18.6634 64.9107C15.8731 68.0205 11.9438 69.1987 10.2734 68.1943C8.47012 67.132 9.17226 62.5543 12.6082 59.2514C14.6962 57.2426 17.4106 55.3883 19.1949 54.2487C19.5935 53.9976 20.2009 53.6308 20.9222 53.1864C21.0361 53.1093 21.1121 53.0705 21.1121 53.0705C21.2449 52.9932 21.3968 52.8967 21.5486 52.8001C22.8204 57.513 21.6056 61.6465 18.6634 64.9107ZM39.0689 50.7913C38.1008 53.2057 36.0508 59.4059 34.817 59.0582C33.7538 58.7685 33.1086 54.0749 34.608 49.4392C35.3673 47.1019 36.9807 44.3207 37.9298 43.2388C39.4675 41.5005 41.1378 40.921 41.5555 41.6357C42.0491 42.563 39.6763 49.2847 39.0689 50.7913ZM55.9059 58.981C55.4883 59.1936 55.1086 59.348 54.9378 59.2323C54.8049 59.155 55.1084 58.8653 55.1084 58.8653C55.1084 58.8653 57.2154 56.5668 58.0506 55.5044C58.5252 54.8865 59.0946 54.1719 59.702 53.3604V53.5922C59.7022 56.3734 57.0827 58.2277 55.9059 58.981ZM68.8893 55.9678C68.5856 55.736 68.6237 55.0213 69.6486 52.7808C70.0474 51.8923 70.9583 50.405 72.5338 48.995C72.7236 49.5744 72.8377 50.1344 72.8185 50.6561C72.7997 54.1328 70.3701 55.427 68.8893 55.9678Z" fill="#CF649A"/>
</svg>
