<svg width="74" height="74" viewBox="0 0 74 74" fill="none" xmlns="http://www.w3.org/2000/svg">
<path d="M0 37V74H37H74V37V0H37H0V37Z" fill="#007ACC"/>
<path d="M16.3638 37.2456L16.3403 40.276H21.1562H25.9721L25.9721 53.9602V67.6443H29.3784H32.7848V53.9602V40.276H37.6006H42.4165L42.4165 37.3043C42.4165 35.6598 42.3813 34.2856 42.3343 34.2503C42.299 34.2033 36.4378 34.1798 29.3314 34.1916L16.399 34.2268L16.3638 37.2456Z" fill="white"/>
<path d="M59.7111 34.1407C61.5904 34.6106 63.0235 35.4445 64.339 36.8071C65.0203 37.5353 66.0304 38.8626 66.1127 39.1798C66.1362 39.2738 62.9177 41.435 60.9679 42.6449C60.8974 42.6919 60.6155 42.3865 60.2984 41.9166C59.3469 40.5306 58.3485 39.9315 56.8215 39.8258C54.5781 39.6731 53.1333 40.8477 53.145 42.8093C53.145 43.3849 53.2273 43.7255 53.4622 44.1953C53.9555 45.2173 54.8717 45.828 57.7495 47.0731C63.0469 49.3519 65.3139 50.8553 66.7235 52.9931C68.2974 55.3776 68.6498 59.1833 67.5809 62.0141C66.4063 65.0915 63.4933 67.1823 59.3939 67.8753C58.1254 68.0985 55.1184 68.0633 53.7558 67.8166C50.7841 67.288 47.965 65.8198 46.2266 63.8934C45.5454 63.1417 44.2181 61.1801 44.3003 61.0392C44.3355 60.9922 44.6409 60.8042 44.9816 60.6046C45.3104 60.4166 46.5555 59.7001 47.7301 59.0188L49.8562 57.7855L50.3025 58.4433C50.925 59.3947 52.2876 60.6985 53.1098 61.1331C55.4708 62.3782 58.7127 62.202 60.3101 60.769C60.9914 60.1465 61.2733 59.5004 61.2733 58.549C61.2733 57.6915 61.1676 57.3157 60.7212 56.6696C60.1457 55.8474 58.9711 55.1544 55.6352 53.7096C51.8177 52.0652 50.1733 51.0433 48.6698 49.4223C47.8006 48.4826 46.9784 46.9792 46.6377 45.7223C46.3558 44.6769 46.2854 42.0576 46.5085 41.0004C47.2955 37.3122 50.0793 34.7398 54.0965 33.9763C55.4003 33.7296 58.4308 33.8236 59.7111 34.1407Z" fill="white"/>
</svg>
